<svg width="128" height="128" viewBox="0 0 128 128" fill="none" xmlns="http://www.w3.org/2000/svg">
<rect width="128" height="128" fill="#333541"/>
<g filter="url(#filter0_d)">
<path d="M89 66.2156C89 41.2711 67.2739 21.534 66.3489 20.7064C65.2972 19.7647 63.705 19.7643 62.6526 20.7064C61.7276 21.5344 40 41.2711 40 66.2156C40 72.2394 42.6032 78.3877 47.1422 83.0847C51.206 87.2902 56.3069 89.8723 61.7302 90.5326V104.23C61.7302 105.76 62.9703 107 64.5007 107C66.0312 107 67.2713 105.76 67.2713 104.23V90.5326C72.6942 89.8723 77.7943 87.2899 81.8578 83.0847C86.3968 78.3877 89 72.2391 89 66.2156ZM50.3557 46.6565L61.7302 58.0284V69.6016L47.1666 55.0408C47.9977 52.1068 49.0978 49.298 50.3557 46.6565ZM67.2713 69.6053V58.031L78.6458 46.659C79.904 49.302 81.0041 52.112 81.8353 55.0475L67.2713 69.6053ZM75.9277 41.5543C75.8837 41.5935 75.8383 41.6311 75.7962 41.6736L67.2713 50.1968V29.6525C69.8147 32.558 73.0312 36.6435 75.9277 41.5543ZM61.7302 29.6521V50.1939L53.2079 41.6736C53.1643 41.6304 53.1189 41.592 53.0734 41.5521C55.9711 36.6417 59.1868 32.5569 61.7302 29.6521ZM45.5411 66.2156C45.5411 64.6391 45.6494 63.0825 45.8385 61.5477L61.7305 77.4357V84.943C52.2988 83.4271 45.5411 74.382 45.5411 66.2156ZM67.2713 84.9426V77.4387L83.1618 61.5544C83.351 63.0869 83.4592 64.6413 83.4592 66.2156C83.4589 74.382 76.702 83.4271 67.2713 84.9426Z" fill="#1EE8B7"/>
</g>
<defs>
<filter id="filter0_d" x="20" y="0" width="89" height="127" filterUnits="userSpaceOnUse" color-interpolation-filters="sRGB">
<feFlood flood-opacity="0" result="BackgroundImageFix"/>
<feColorMatrix in="SourceAlpha" type="matrix" values="0 0 0 0 0 0 0 0 0 0 0 0 0 0 0 0 0 0 127 0" result="hardAlpha"/>
<feOffset/>
<feGaussianBlur stdDeviation="10"/>
<feColorMatrix type="matrix" values="0 0 0 0 0.117647 0 0 0 0 0.909804 0 0 0 0 0.717647 0 0 0 0.5 0"/>
<feBlend mode="normal" in2="BackgroundImageFix" result="effect1_dropShadow"/>
<feBlend mode="normal" in="SourceGraphic" in2="effect1_dropShadow" result="shape"/>
</filter>
</defs>
</svg>
